<svg width="402" height="17" viewBox="0 0 402 17" fill="none" xmlns="http://www.w3.org/2000/svg">
<path d="M280.044 8.36817C280.044 9.24372 279.611 10.2166 278.138 10.2166C276.969 10.2166 276.265 8.96808 276.265 8.96808L274.855 10.1679C274.855 10.1679 275.896 12.065 278.138 12.065C280.508 12.065 281.965 10.6868 281.965 8.30331V0.520602L280.044 0.520602C280.044 0.520602 280.044 4.62274 280.044 8.36817Z" fill="#111111"/>
<path d="M285.656 11.8704H287.593L288.618 9.17887L293.358 9.17887L294.383 11.8704H296.32L291.965 0.520602L290.011 0.520602L285.656 11.8704ZM290.988 2.96891L292.669 7.39533H289.307L290.988 2.96891Z" fill="#111111"/>
<path d="M299.999 0.520602V11.8704L301.92 11.8704V4.24982L305.427 9.64907L308.934 4.24982V11.8704H310.856V0.520602L309.078 0.520602L305.427 6.22792L301.776 0.520602L299.999 0.520602Z" fill="#111111"/>
<path d="M317.552 2.369L322.419 2.369V0.520602L315.63 0.520602V11.8704H322.516V10.022H317.552V6.97376L322.035 6.97376V5.12537L317.552 5.12537V2.369Z" fill="#111111"/>
<path d="M332.378 8.90323C332.378 9.82743 331.385 10.2166 330.424 10.2166C328.727 10.2166 327.766 8.51409 327.766 8.51409L326.325 9.74636C326.325 9.74636 327.622 12.065 330.424 12.065C332.538 12.065 334.331 10.9624 334.331 8.90323C334.331 6.84405 332.906 6.06578 331.193 5.41722C329.656 4.83352 328.775 4.52545 328.775 3.5364C328.775 2.77434 329.527 2.17443 330.488 2.17443C331.881 2.17443 332.81 3.45533 332.81 3.45533L334.139 2.12579C334.139 2.12579 332.826 0.326035 330.488 0.326035C328.23 0.326035 326.821 1.93122 326.821 3.5364C326.821 5.64422 328.679 6.5522 330.328 7.1359C331.657 7.60611 332.378 7.9466 332.378 8.90323Z" fill="#111111"/>
<path d="M350.851 10.249C348.641 10.249 347.12 8.38438 347.12 6.19549C347.12 4.00661 348.641 2.142 350.851 2.142C352.693 2.142 353.701 3.39048 353.701 3.39048L354.998 2.10957C354.998 2.10957 353.541 0.326035 350.851 0.326035C347.617 0.326035 345.167 2.8392 345.167 6.19549C345.167 9.55179 347.617 12.065 350.851 12.065C353.685 12.065 355.159 10.1355 355.159 10.1355L353.878 8.85459C353.878 8.85459 352.821 10.249 350.851 10.249Z" fill="#111111"/>
<path d="M359.03 11.8704H365.723V10.022H360.952V0.520602L359.03 0.520602V11.8704Z" fill="#111111"/>
<path d="M371.36 2.369L376.228 2.369V0.520602L369.438 0.520602V11.8704H376.324V10.022H371.36V6.97376L375.843 6.97376V5.12537L371.36 5.12537V2.369Z" fill="#111111"/>
<path d="M379.493 11.8704H381.43L382.455 9.17887H387.195L388.22 11.8704H390.157L385.802 0.520602L383.848 0.520602L379.493 11.8704ZM384.825 2.96891L386.506 7.39533L383.144 7.39533L384.825 2.96891Z" fill="#111111"/>
<path d="M393.836 11.8704H395.757V7.5899L396.638 7.5899L399.296 11.8704H401.538L398.736 7.46018C400.337 7.05484 401.234 5.75772 401.234 4.05525C401.234 1.97986 399.745 0.520602 397.519 0.520602L393.836 0.520602V11.8704ZM397.279 5.7415L395.757 5.7415V2.369L397.279 2.369C398.512 2.369 399.28 2.93649 399.28 4.05525C399.28 5.17401 398.512 5.7415 397.279 5.7415Z" fill="#111111"/>
<path d="M252.1 2.09987L252.564 2.11587C253.188 2.11587 253.236 2.16387 253.092 2.88387C252.564 5.45987 252.004 7.87587 251.556 10.0679C251.348 11.1079 251.412 11.6839 251.652 12.0679C251.892 12.4679 252.42 12.7559 252.932 12.7559C253.524 12.7559 254.388 12.5319 255.348 11.8759C256.756 10.9319 257.812 8.89987 257.812 7.13987C257.812 6.08387 257.38 5.37987 256.676 5.37987C255.94 5.37987 254.58 6.09987 253.204 7.77987H253.172C253.62 5.73187 254.052 3.85987 254.596 1.66787C254.676 1.33187 254.676 1.17187 254.516 1.17187C254.26 1.17187 253.38 1.57187 252.132 1.71587L252.1 2.09987ZM253.732 12.0199C253.076 12.0199 252.452 11.5559 252.74 9.98787C252.836 9.44387 252.932 9.02787 253.028 8.73987C254.052 7.28387 255.38 6.25987 255.94 6.25987C256.244 6.25987 256.484 6.59587 256.484 7.41187C256.484 9.36387 255.508 11.2199 254.564 11.7799C254.324 11.9239 254.004 12.0199 253.732 12.0199ZM261.822 11.3639C261.726 9.90787 261.614 8.46787 261.454 7.25187C261.326 5.97187 261.086 5.37987 260.638 5.37987C260.062 5.37987 259.262 6.29187 258.75 7.09187L259.022 7.45987C259.422 6.89987 259.822 6.53187 259.95 6.53187C260.078 6.53187 260.174 6.72387 260.286 7.52387C260.51 8.97987 260.766 11.4759 260.782 12.7399C259.998 13.7959 258.734 15.2039 257.022 16.3239L257.15 16.6759L258.814 16.2439C259.71 15.2519 260.75 13.8439 261.694 12.4839C262.542 11.2839 263.902 9.17187 264.59 7.95587C264.99 7.25187 265.166 6.70787 265.15 6.25987C265.15 5.73187 264.878 5.37987 264.526 5.37987C264.254 5.37987 263.966 5.57187 263.854 5.81187C263.79 5.93987 263.774 6.09987 263.822 6.21187C263.902 6.38787 263.998 6.64387 263.998 6.96387C264.014 8.13187 262.542 10.3079 261.854 11.3639H261.822Z" fill="#999999"/>
<path d="M3.63761 11.8704H5.61153V2.369H8.78625V0.520602H0.462891V2.369H3.63761V11.8704Z" fill="#111111"/>
<path d="M18.2256 5.14161H13.3073V0.520602H11.3334V11.8704H13.3073V6.99001H18.2256V11.8704H20.1995V0.520602H18.2256V5.14161Z" fill="#111111"/>
<path d="M25.6967 2.369H30.6973V0.520602H23.7228V11.8704H30.796V10.022H25.6967V6.97379H30.3026V5.12539H25.6967V2.369Z" fill="#111111"/>
<path d="M44.9125 10.249C42.6425 10.249 41.0798 8.38441 41.0798 6.19552C41.0798 4.00662 42.6425 2.14201 44.9125 2.14201C46.8041 2.14201 47.8404 3.39049 47.8404 3.39049L49.1728 2.10958C49.1728 2.10958 47.6759 0.326035 44.9125 0.326035C41.5897 0.326035 39.073 2.83921 39.073 6.19552C39.073 9.55183 41.5897 12.065 44.9125 12.065C47.824 12.065 49.3373 10.1355 49.3373 10.1355L48.0214 8.85462C48.0214 8.85462 46.9357 10.249 44.9125 10.249Z" fill="#111111"/>
<path d="M51.9437 11.8704H58.8195V10.022H53.9176V0.520602H51.9437V11.8704Z" fill="#111111"/>
<path d="M63.2389 2.369H68.2395V0.520602H61.265V11.8704H68.3382V10.022H63.2389V6.97379H67.8447V5.12539H63.2389V2.369Z" fill="#111111"/>
<path d="M70.2227 11.8704H72.2131L73.2658 9.1789H78.1348L79.1876 11.8704H81.1779L76.7037 0.520602H74.6969L70.2227 11.8704ZM75.7003 2.96892L77.4275 7.39536H73.9731L75.7003 2.96892Z" fill="#111111"/>
<path d="M83.5861 11.8704H85.5601V7.58993H86.4648L89.1954 11.8704H91.4983L88.6196 7.46021C90.2646 7.05486 91.1857 5.75774 91.1857 4.05526C91.1857 1.97987 89.6559 0.520602 87.3695 0.520602H83.5861V11.8704ZM87.1227 5.74153H85.5601V2.369H87.1227C88.3893 2.369 89.1789 2.9365 89.1789 4.05526C89.1789 5.17403 88.3893 5.74153 87.1227 5.74153Z" fill="#111111"/>
<path d="M107.097 5.14161H102.179V0.520602H100.205V11.8704H102.179V6.99001H107.097V11.8704H109.071V0.520602H107.097V5.14161Z" fill="#111111"/>
<path d="M111.476 11.8704H113.466L114.519 9.1789H119.388L120.44 11.8704H122.431L117.957 0.520602H115.95L111.476 11.8704ZM116.953 2.96892L118.68 7.39536H115.226L116.953 2.96892Z" fill="#111111"/>
<path d="M124.839 11.8704H128.984C131.156 11.8704 132.833 10.5085 132.833 8.51413C132.833 6.47116 131.205 5.88745 131.04 5.85502C131.205 5.80638 132.241 5.14161 132.241 3.76341C132.241 1.37995 130.448 0.520602 128.573 0.520602H124.839V11.8704ZM128.918 10.022H126.813V7.00622H128.918C130.004 7.00622 130.827 7.444 130.827 8.51413C130.827 9.58425 130.004 10.022 128.918 10.022ZM126.813 5.15782V2.369H128.507C129.478 2.369 130.234 2.77435 130.234 3.76341C130.234 4.75247 129.609 5.15782 128.507 5.15782H126.813Z" fill="#111111"/>
<path d="M135.868 11.8704H137.842V0.520602H135.868V11.8704Z" fill="#111111"/>
<path d="M143.79 11.8704H145.764V2.369H148.939V0.520602H140.615V2.369H143.79V11.8704Z" fill="#111111"/>
<path d="M161.579 8.3682C161.579 9.24376 161.135 10.2166 159.622 10.2166C158.421 10.2166 157.697 8.96812 157.697 8.96812L156.25 10.168C156.25 10.168 157.319 12.065 159.622 12.065C162.056 12.065 163.553 10.6868 163.553 8.30334V0.520602H161.579C161.579 0.520602 161.579 4.62276 161.579 8.3682Z" fill="#111111"/>
<path d="M172.257 0.326035C168.902 0.326035 166.434 2.83921 166.434 6.19552C166.434 9.55183 168.902 12.065 172.257 12.065C175.613 12.065 178.08 9.55183 178.08 6.19552C178.08 2.83921 175.613 0.326035 172.257 0.326035ZM172.257 10.2166C169.938 10.2166 168.441 8.38441 168.441 6.19552C168.441 4.00662 169.938 2.17444 172.257 2.17444C174.577 2.17444 176.073 4.00662 176.073 6.19552C176.073 8.38441 174.577 10.2166 172.257 10.2166Z" fill="#111111"/>
<path d="M187.868 7.50885C187.868 9.13026 187.029 10.2166 185.401 10.2166C183.756 10.2166 182.933 9.13026 182.933 7.50885C182.933 3.76341 182.933 0.520602 182.933 0.520602H180.959V7.75207C180.959 10.249 182.687 12.065 185.401 12.065C188.115 12.065 189.842 10.249 189.842 7.75207V0.520602H187.868C187.868 0.520602 187.868 3.76341 187.868 7.50885Z" fill="#111111"/>
<path d="M193.381 11.8704H195.355V7.58993H196.26L198.99 11.8704H201.293L198.415 7.46021C200.059 7.05486 200.981 5.75774 200.981 4.05526C200.981 1.97987 199.451 0.520602 197.164 0.520602H193.381V11.8704ZM196.918 5.74153H195.355V2.369H196.918C198.184 2.369 198.974 2.9365 198.974 4.05526C198.974 5.17403 198.184 5.74153 196.918 5.74153Z" fill="#111111"/>
<path d="M204.068 0.520602V11.8704H206.042V4.07148L211.799 11.8704H213.575V0.520602H211.602V8.33577L205.844 0.520602H204.068Z" fill="#111111"/>
<path d="M215.981 11.8704H217.972L219.024 9.1789H223.893L224.946 11.8704H226.936L222.462 0.520602H220.455L215.981 11.8704ZM221.459 2.96892L223.186 7.39536H219.732L221.459 2.96892Z" fill="#111111"/>
<path d="M229.345 11.8704H236.22V10.022H231.319V0.520602H229.345V11.8704Z" fill="#111111"/>
</svg>
