<svg width="318" height="11" viewBox="0 0 318 11" fill="none" xmlns="http://www.w3.org/2000/svg">
<path d="M2.94373 9.80029H4.50373V2.18229H7.01273V0.700292H0.434731V2.18229H2.94373V9.80029ZM16.2061 4.40529H12.3191V0.700292H10.7591V9.80029H12.3191V5.88729H16.2061V9.80029H17.7661V0.700292H16.2061V4.40529ZM23.8439 2.18229H27.7959V0.700292H22.2839V9.80029H27.8739V8.31829H23.8439V5.87429H27.4839V4.39229H23.8439V2.18229ZM38.5838 9.80029H40.1438V0.700292H38.5838V9.80029ZM44.8485 0.700292V9.80029H46.4085V3.54729L50.9585 9.80029H52.3625V0.700292H50.8025V6.96629L46.2525 0.700292H44.8485ZM61.4311 7.42129C61.4311 8.16229 60.6251 8.47429 59.8451 8.47429C58.4671 8.47429 57.6871 7.10929 57.6871 7.10929L56.5171 8.09729C56.5171 8.09729 57.5701 9.95629 59.8451 9.95629C61.5611 9.95629 63.0171 9.07229 63.0171 7.42129C63.0171 5.77029 61.8601 5.14629 60.4691 4.62629C59.2211 4.15829 58.5061 3.91129 58.5061 3.11829C58.5061 2.50729 59.1171 2.02629 59.8971 2.02629C61.0281 2.02629 61.7821 3.05329 61.7821 3.05329L62.8611 1.98729C62.8611 1.98729 61.7951 0.544293 59.8971 0.544293C58.0641 0.544293 56.9201 1.83129 56.9201 3.11829C56.9201 4.80829 58.4281 5.53629 59.7671 6.00429C60.8461 6.38129 61.4311 6.65429 61.4311 7.42129ZM68.9416 9.80029H70.5016V2.18229H73.0106V0.700292H66.4326V2.18229H68.9416V9.80029ZM75.3905 9.80029H76.9635L77.7955 7.64229H81.6435L82.4755 9.80029H84.0485L80.5125 0.700292H78.9265L75.3905 9.80029ZM79.7195 2.66329L81.0845 6.21229H78.3545L79.7195 2.66329ZM87.685 0.700292V9.80029H89.245V3.54729L93.795 9.80029H95.199V0.700292H93.639V6.96629L89.089 0.700292H87.685ZM101.447 9.80029H103.007V2.18229H105.516V0.700292H98.9377V2.18229H101.447V9.80029ZM127.448 0.700292H125.823L123.847 6.16029L121.819 0.700292H120.532L118.465 6.16029L116.541 0.700292H114.773L118.361 10.1123L121.13 3.28729L123.86 10.1123L127.448 0.700292ZM134.946 0.544293C132.294 0.544293 130.344 2.55929 130.344 5.25029C130.344 7.94129 132.294 9.95629 134.946 9.95629C137.598 9.95629 139.548 7.94129 139.548 5.25029C139.548 2.55929 137.598 0.544293 134.946 0.544293ZM134.946 8.47429C133.113 8.47429 131.93 7.00529 131.93 5.25029C131.93 3.49529 133.113 2.02629 134.946 2.02629C136.779 2.02629 137.962 3.49529 137.962 5.25029C137.962 7.00529 136.779 8.47429 134.946 8.47429ZM143.557 9.80029H145.117V6.36829H145.832L147.99 9.80029H149.81L147.535 6.26429C148.835 5.93929 149.563 4.89929 149.563 3.53429C149.563 1.87029 148.354 0.700292 146.547 0.700292H143.557V9.80029ZM146.352 4.88629H145.117V2.18229H146.352C147.353 2.18229 147.977 2.63729 147.977 3.53429C147.977 4.43129 147.353 4.88629 146.352 4.88629ZM153.736 9.80029H159.17V8.31829H155.296V0.700292H153.736V9.80029ZM165.774 0.700292H162.836V9.80029H165.774C168.426 9.80029 170.272 7.87629 170.272 5.25029C170.272 2.62429 168.426 0.700292 165.774 0.700292ZM165.8 8.31829H164.396V2.18229H165.8C167.568 2.18229 168.686 3.58629 168.686 5.25029C168.686 6.90129 167.568 8.31829 165.8 8.31829ZM185.745 0.700292H184.12L182.144 6.16029L180.116 0.700292H178.829L176.762 6.16029L174.838 0.700292H173.07L176.658 10.1123L179.427 3.28729L182.157 10.1123L185.745 0.700292ZM189.546 9.80029H191.106V0.700292H189.546V9.80029ZM198.749 0.700292H195.811V9.80029H198.749C201.401 9.80029 203.247 7.87629 203.247 5.25029C203.247 2.62429 201.401 0.700292 198.749 0.700292ZM198.775 8.31829H197.371V2.18229H198.775C200.543 2.18229 201.661 3.58629 201.661 5.25029C201.661 6.90129 200.543 8.31829 198.775 8.31829ZM208.807 2.18229H212.759V0.700292H207.247V9.80029H212.837V8.31829H208.807V5.87429H212.447V4.39229H208.807V2.18229ZM223.365 9.80029H226.641C228.357 9.80029 229.683 8.70829 229.683 7.10929C229.683 5.47129 228.396 5.00329 228.266 4.97729C228.396 4.93829 229.215 4.40529 229.215 3.30029C229.215 1.38929 227.798 0.700292 226.316 0.700292H223.365V9.80029ZM226.589 8.31829H224.925V5.90029H226.589C227.447 5.90029 228.097 6.25129 228.097 7.10929C228.097 7.96729 227.447 8.31829 226.589 8.31829ZM224.925 4.41829V2.18229H226.264C227.031 2.18229 227.629 2.50729 227.629 3.30029C227.629 4.09329 227.135 4.41829 226.264 4.41829H224.925ZM235.193 2.18229H239.145V0.700292H233.633V9.80029H239.223V8.31829H235.193V5.87429H238.833V4.39229H235.193V2.18229ZM247.88 7.42129C247.88 8.16229 247.074 8.47429 246.294 8.47429C244.916 8.47429 244.136 7.10929 244.136 7.10929L242.966 8.09729C242.966 8.09729 244.019 9.95629 246.294 9.95629C248.01 9.95629 249.466 9.07229 249.466 7.42129C249.466 5.77029 248.309 5.14629 246.918 4.62629C245.67 4.15829 244.955 3.91129 244.955 3.11829C244.955 2.50729 245.566 2.02629 246.346 2.02629C247.477 2.02629 248.231 3.05329 248.231 3.05329L249.31 1.98729C249.31 1.98729 248.244 0.544293 246.346 0.544293C244.513 0.544293 243.369 1.83129 243.369 3.11829C243.369 4.80829 244.877 5.53629 246.216 6.00429C247.295 6.38129 247.88 6.65429 247.88 7.42129ZM255.39 9.80029H256.95V2.18229H259.459V0.700292H252.881V2.18229H255.39V9.80029ZM267.755 7.42129C267.755 8.16229 266.949 8.47429 266.169 8.47429C264.791 8.47429 264.011 7.10929 264.011 7.10929L262.841 8.09729C262.841 8.09729 263.894 9.95629 266.169 9.95629C267.885 9.95629 269.341 9.07229 269.341 7.42129C269.341 5.77029 268.184 5.14629 266.793 4.62629C265.545 4.15829 264.83 3.91129 264.83 3.11829C264.83 2.50729 265.441 2.02629 266.221 2.02629C267.352 2.02629 268.106 3.05329 268.106 3.05329L269.185 1.98729C269.185 1.98729 268.119 0.544293 266.221 0.544293C264.388 0.544293 263.244 1.83129 263.244 3.11829C263.244 4.80829 264.752 5.53629 266.091 6.00429C267.17 6.38129 267.755 6.65429 267.755 7.42129ZM275.097 2.18229H279.049V0.700292H273.537V9.80029H279.127V8.31829H275.097V5.87429H278.737V4.39229H275.097V2.18229ZM283.233 9.80029H288.667V8.31829H284.793V0.700292H283.233V9.80029ZM292.333 9.80029H297.767V8.31829H293.893V0.700292H292.333V9.80029ZM302.993 2.18229H306.945V0.700292H301.433V9.80029H307.023V8.31829H302.993V5.87429H306.633V4.39229H302.993V2.18229ZM311.13 9.80029H312.69V6.36829H313.405L315.563 9.80029H317.383L315.108 6.26429C316.408 5.93929 317.136 4.89929 317.136 3.53429C317.136 1.87029 315.927 0.700292 314.12 0.700292H311.13V9.80029ZM313.925 4.88629H312.69V2.18229H313.925C314.926 2.18229 315.55 2.63729 315.55 3.53429C315.55 4.43129 314.926 4.88629 313.925 4.88629Z" fill="#999999"/>
</svg>
